# AST/ASF file generated using VICON BodyLanguage
# -----------------------------------------------
:version 1.10
:name VICON
:units
  mass 1.0
  length 0.45
  angle deg
:documentation
   .ast/.asf automatically generated from VICON data using
   VICON BodyBuilder and BodyLanguage model FoxedUp or BRILLIANT.MOD
:root
   order TX TY TZ RX RY RZ
   axis XYZ
   position 0 0 0  
   orientation 0 -0 0 
:bonedata
  begin
     id 1 
     name lhipjoint
     direction 0.432694 -0.693742 0.575759 
     length 2.19277 
     axis 0 -0 0  XYZ
  end
  begin
     id 2 
     name lfemur
     direction 0.34202 -0.939693 0  
     length 6.69022  
     axis 0 -0 20  XYZ
    dof rx ry rz
    limits (-160.0 20.0)
           (-70.0 70.0)
           (-60.0 70.0)
  end
  begin
     id 3 
     name ltibia
     direction 0.34202 -0.939693 0   
     length 6.50337   
     axis 0 -0 20   XYZ
    dof rx
    limits (-10.0 170.0)
  end
  begin
     id 4 
     name lfoot
     direction 0.158999 -0.435969 0.885805   
     length 2.70564   
     axis -90 -1.13533e-015 20   XYZ
    dof rx rz
    limits (-45.0 90.0)
           (-70.0 20.0)
  end
  begin
     id 5 
     name ltoes
     direction -0.00592919 0.00964381 0.999936   
     length 1.29929   
     axis -90 -1.13533e-015 20   XYZ
    dof rx
    limits (-90.0 20.0)
  end
  begin
     id 6 
     name rhipjoint
     direction -0.414359 -0.700339 0.581234   
     length 2.17212  
     axis 0 -0 0  XYZ 
  end
  begin
     id 7 
     name rfemur
     direction -0.34202 -0.939693 0   
     length 7.17659   
     axis 0 -0 -20   XYZ
    dof rx ry rz
    limits (-160.0 20.0)
           (-70.0 70.0)
           (-70.0 60.0)
  end
  begin
     id 8 
     name rtibia
     direction -0.34202 -0.939693 0   
     length 6.36669   
     axis 0 -0 -20   XYZ
    dof rx
    limits (-10.0 170.0)
 end
 begin
     id 9 
     name rfoot
     direction -0.137064 -0.37658 0.916188   
     length 2.22351  
     axis -90 1.13533e-015 -20   XYZ
    dof rx rz
    limits (-45.0 90.0)
           (-20.0 70.0)
  end
  begin
     id 10 
     name rtoes
     direction -0.000784077 -0.00289101 0.999996   
     length 1.09522   
     axis -90 1.13533e-015 -20   XYZ
    dof rx
    limits (-90.0 20.0)
  end
  begin
     id 11 
     name lowerback
     direction -0.0176242 0.984912 -0.172157   
     length 1.65301   
     axis 0 -0 0   XYZ
    dof rx ry rz
    limits (-20.0 45.0)
           (-30.0 30.0)
           (-30.0 30.0)
  end
  begin
     id 12 
     name upperback
     direction -0.00218128 0.998776 -0.0494072   
     length 1.67776   
     axis 0 -0 0   XYZ
    dof rx ry rz
    limits (-20.0 45.0)
           (-30.0 30.0)
           (-30.0 30.0)
  end
  begin
     id 13 
     name thorax
     direction 0.00544186 0.999658 0.0255711   
     length 1.72293   
     axis 0 -0 0   XYZ
    dof rx ry rz
    limits (-20.0 45.0)
           (-30.0 30.0)
           (-30.0 30.0)
  end
  begin
     id 14 
     name lowerneck
     direction -0.105325 0.983841 0.144785   
     length 2.14226   
     axis 0 -0 0   XYZ
    dof rx ry rz
    limits (-20.0 45.0)
           (-30.0 30.0)
           (-30.0 30.0)
  end
  begin
     id 15 
     name upperneck
     direction 0.0547957 0.988053 -0.144041   
     length 2.17508   
     axis 0 -0 0   XYZ
    dof rx ry rz
    limits (-20.0 45.0)
           (-30.0 30.0)
           (-30.0 30.0)
  end
  begin
     id 16
     name head
     direction 0.0247488 0.997534 -0.0656813  
     length 2.20048  
     axis 0 -0 0   XYZ
    dof rx ry rz
    limits (-20.0 45.0)
           (-30.0 30.0)
           (-30.0 30.0)
  end
  begin
     id 17 
     name lclavicle
     direction 0.820559 0.567247 -0.0701026  
     length 4.09615  
     axis 0 -0 0   XYZ
    dof ry rz
    limits (-20.0 10.0)
           (0.0 20.0)
  end
  begin
     id 18 
     name lhumerus
     direction 0.999977 -0.0067566 -9.96392e-005   
     length 4.59333   
     axis -180 -30 -90   XYZ
    dof rx ry rz
    limits (-60.0 90.0)
           (-90.0 90.0)
           (-90.0 90.0)
  end
  begin
     id 19
     name lradius
     direction 1 -4.48982e-011 -2.53425e-027   
     length 2.81151   
     axis -180 -30 -90   XYZ
    dof rx
    limits (-10.0 170.0)
  end
  begin
     id 20
     name lwrist
     direction 1 -4.48939e-011 -7.39254e-028   
     length 1.40576   
     axis 2.56395e-016 90 90   XYZ
    dof ry
    limits (-180.0 0.0)
 end
  begin
     id 21 
     name lhand
     direction 1 -4.48939e-011 -1.47851e-027   
     length 0.895651   
     axis 9.43423e-016 90 90   XYZ
    dof rx rz
    limits (-90.0 90.0)
           (-45.0 45.0)
  end
  begin
     id 22 
     name lfingers
     direction 1 -4.48978e-011 -2.95702e-027   
     length 0.722097   
     axis 1.88685e-015 90 90   XYZ
    dof rx
    limits (0.0 90.0)
  end
  begin
     id 23
     name lthumb
     direction 0.707107 -6.34931e-011 0.707107   
     length 1.03679   
     axis -90 45 -9.86935e-015   XYZ
    dof rx rz
    limits (-45.0 45.0)
           (-45.0 45.0)
  end
  begin
     id 24 
     name rclavicle
     direction -0.831414 0.553102 -0.0531864   
     length 4.24872  
     axis 0 -0 0   XYZ 
    dof ry rz
    limits (-10.0 20.0)
           (-20.0 0.0)
  end
  begin
     id 25 
     name rhumerus
     direction -0.999916 -0.000939607 0.0129331  
     length 4.74834   
     axis -180 30 90   XYZ
    dof rx ry rz
    limits (-90.0 60.0)
           (-90.0 90.0)
           (-90.0 90.0)
  end
  begin
     id 26 
     name rradius
     direction -1 -4.48956e-011 -1.31752e-027   
     length 2.79907   
     axis -180 30 90   XYZ
    dof rx
    limits (-10.0 170.0)
  end
  begin
     id 27 
     name rwrist
     direction -1 -4.4897e-011 -7.39254e-028   
     length 1.39954   
     axis 2.56395e-016 -90 -90   XYZ
    dof ry
    limits (-180.0 0.0)
  end
  begin
     id 28
     name rhand
     direction -0.999997 -0.00250697 0.000800838   
     length 0.953304   
     axis 9.43423e-016 -90 -90   XYZ
    dof rx rz
    limits (-90.0 90.0)
           (-45.0 45.0)
  end
  begin
     id 29
     name rfingers
     direction -1 -4.48954e-011 -2.95702e-027   
     length 0.763342   
     axis 1.88685e-015 -90 -90   XYZ
    dof rx
    limits (0.0 90.0)
  end
  begin
     id 30
     name rthumb
     direction -0.709701 -0.00217037 0.7045   
     length 1.10115   
     axis -90 -45 9.86935e-015   XYZ
    dof rx rz
    limits (-45.0 45.0)
           (-45.0 45.0)
  end
:hierarchy
  begin
    root lhipjoint rhipjoint lowerback
    lhipjoint lfemur
    lfemur ltibia
    ltibia lfoot
    lfoot ltoes
    rhipjoint rfemur
    rfemur rtibia
    rtibia rfoot
    rfoot rtoes
    lowerback upperback
    upperback thorax
    thorax lowerneck lclavicle rclavicle
    lowerneck upperneck
    upperneck head
    lclavicle lhumerus
    lhumerus lradius
    lradius lwrist
    lwrist lhand lthumb
    lhand lfingers
    rclavicle rhumerus
    rhumerus rradius
    rradius rwrist
    rwrist rhand rthumb
    rhand rfingers
  end

#!OML:ASF G:\ViconDB\ViconDB\414\test\team2\shane.ASF
:FULLY-SPECIFIED
:DEGREES
64
root 3.79414 16.7055 -22.9607 -9.65811 -3.21374 -3.84425
lowerback 8.52291 -3.57792 -0.506614
upperback 5.59456 -4.82157 3.90402
thorax 1.42881 -2.51899 4.66253
lowerneck -19.8792 -0.608128 -7.56521
upperneck 26.4963 -0.47026 7.02234
head 12.0408 -0.0663007 3.86671
rclavicle 4.02539e-014 -2.8625e-014
rhumerus -43.7079 11.4554 -85.6642
rradius 35.3481
rwrist 29.3715
rhand -29.6014 -14.4592
rfingers 7.12502
rthumb -2.93247 -44.4188
lclavicle 4.02539e-014 -2.8625e-014
lhumerus -25.851 -19.2292 98.2638
lradius 33.6471
lwrist -5.97734
lhand -41.7776 10.1309
lfingers 7.12502
lthumb -14.6809 39.5911
rfemur -21.7416 -7.78185 17.2873
rtibia 51.9484
rfoot -14.171 3.22275
rtoes -16.7998
lfemur 15.0822 3.77928 -15.4172
ltibia 20.7292
lfoot -26.3419 -9.74696
ltoes -6.86984
65
root 3.79726 16.7457 -22.7928 -9.47881 -3.12772 -3.79987
lowerback 8.30592 -3.79398 -0.553613
upperback 5.31373 -5.10886 4.07107
thorax 1.30054 -2.66279 4.87549
lowerneck -19.711 -0.362864 -7.38469
upperneck 26.8539 -0.0811158 6.60627
head 12.1124 0.0634668 3.74674
rclavicle -1.33186e-014 -2.3059e-014
rhumerus -44.4514 11.0035 -85.4121
rradius 35.424
rwrist 29.1527
rhand -29.689 -14.6451
rfingers 7.12502
rthumb -3.0171 -44.6035
lclavicle -1.33186e-014 -2.3059e-014
lhumerus -25.9464 -19.0908 98.2615
lradius 34.2718
lwrist -6.109
lhand -41.6854 9.60559
lfingers 7.12502
lthumb -14.5921 39.0723
rfemur -22.3373 -7.44581 17.4954
rtibia 49.9296
rfoot -12.7359 4.1074
rtoes -16.5141
lfemur 16.7637 3.95761 -15.3768
ltibia 17.9352
lfoot -25.1551 -10.2671
ltoes -7.17801
66
root 3.79535 16.7887 -22.6366 -9.16433 -2.75489 -3.94618
lowerback 8.1816 -4.1149 -0.564933
upperback 4.97132 -5.52906 4.33933
thorax 1.07993 -2.872 5.19194
lowerneck -19.6286 -0.0473656 -7.07246
upperneck 27.2631 0.416922 6.04611
head 12.2176 0.235817 3.56849
rclavicle 1.00386e-014 -1.43125e-014
rhumerus -45.0995 10.5658 -85.0089
rradius 35.2448
rwrist 29.5988
rhand -29.9618 -14.2991
rfingers 7.12502
rthumb -3.2806 -44.2536
lclavicle 1.00386e-014 -1.43125e-014
lhumerus -26.0463 -19.2902 98.2928
lradius 35.0448
lwrist -5.70934
lhand -41.924 9.65786
lfingers 7.12502
lthumb -14.8219 39.1078
rfemur -23.0211 -7.30948 17.9433
rtibia 47.8991
rfoot -11.138 4.60021
rtoes -16.2367
lfemur 18.3565 3.90968 -15.1137
ltibia 14.8191
lfoot -23.724 -11.1224
ltoes -7.45159
67
root 3.79853 16.8203 -22.4597 -9.1266 -2.68343 -3.58445
lowerback 7.94831 -4.28868 -0.873288
upperback 4.75549 -5.7796 4.38221
thorax 1.0435 -3.00281 5.41294
lowerneck -19.3473 0.200774 -6.74481
upperneck 27.5378 0.81298 5.46203
head 12.2436 0.361003 3.35407
rclavicle 4.28381e-014 -1.90833e-014
rhumerus -45.7643 9.94222 -84.7147
rradius 35.2954
rwrist 29.3638
rhand -29.9654 -14.6641
rfingers 7.12502
rthumb -3.28405 -44.6185
lclavicle 4.28381e-014 -1.90833e-014
lhumerus -26.0961 -19.216 98.2393
lradius 35.6029
lwrist -5.96877
lhand -41.9883 9.99447
lfingers 7.12502
lthumb -14.8839 39.4398
rfemur -23.3161 -7.18215 17.7607
rtibia 45.8854
rfoot -9.65927 5.56037
rtoes -16.4731
lfemur 20.493 3.81434 -15.5153
ltibia 11.5414
lfoot -22.1701 -11.61
ltoes -7.65973
68
root 3.79944 16.8489 -22.2951 -8.93261 -2.47293 -3.68161
lowerback 7.81192 -4.55534 -0.782177
upperback 4.4873 -6.12318 4.58339
thorax 0.888137 -3.17068 5.59218
lowerneck -19.2187 0.473949 -6.52497
upperneck 27.884 1.24951 5.02522
head 12.3283 0.512051 3.22567
rclavicle 4.39314e-014 -7.07673e-014
rhumerus -46.3056 9.44101 -84.4626
rradius 35.6369
rwrist 27.4494
rhand -29.3857 -14.3462
rfingers 7.12502
rthumb -2.7242 -44.3086
lclavicle 4.39314e-014 -7.07673e-014
lhumerus -26.1165 -19.0871 98.0991
lradius 36.0855
lwrist -6.3023
lhand -42.016 9.48566
lfingers 7.12502
lthumb -14.9106 38.929
rfemur -23.7897 -7.24945 18.1603
rtibia 44.0003
rfoot -8.08127 6.1728
rtoes -16.1404
lfemur 22.4702 3.6339 -15.3698
ltibia 8.07093
lfoot -20.5617 -12.0854
ltoes -7.92777
69
root 3.77792 16.876 -22.1657 -8.45464 -2.04231 -4.41941
lowerback 7.96469 -4.86897 -0.530173
upperback 4.07459 -6.50483 5.14499
thorax 0.456154 -3.35453 6.09994
lowerneck -19.2068 0.678644 -6.48877
upperneck 28.261 1.65838 4.59822
head 12.4543 0.631348 3.13106
rclavicle -2.76311e-014 7.15625e-015
rhumerus -46.8184 9.24632 -84.0751
rradius 35.4223
rwrist 27.9479
rhand -29.7404 -14.667
rfingers 7.12502
rthumb -3.06675 -44.6246
lclavicle -2.76311e-014 7.15625e-015
lhumerus -26.0687 -19.2616 98.2128
lradius 36.8213
lwrist -5.34254
lhand -42.427 9.33241
lfingers 7.12502
lthumb -15.3065 38.746
rfemur -24.6546 -6.98587 19.369
rtibia 42.2614
rfoot -6.39585 6.07858
rtoes -16.8453
lfemur 26.0756 3.11184 -14.5276
ltibia 2.54444e-014
lfoot -16.2886 -12.7982
ltoes -8.52138
70
root 3.7701 16.8626 -22.0012 -8.29751 -1.828 -4.47078
lowerback 7.74166 -5.08612 -0.539735
upperback 3.86542 -6.79328 5.32429
thorax 0.417461 -3.49924 6.29867
lowerneck -19.0736 0.872197 -6.47249
upperneck 28.6045 1.98719 4.37701
head 12.5461 0.739866 3.10291
rclavicle 2.34566e-014 -3.18055e-014
rhumerus -47.3039 8.75872 -83.8259
rradius 35.7024
rwrist 25.5539
rhand -28.9379 -14.0758
rfingers 7.12502
rthumb -2.29177 -44.0432
lclavicle 2.34566e-014 -3.18055e-014
lhumerus -25.7702 -18.7695 97.9132
lradius 36.986
lwrist -6.3945
lhand -41.8542 8.93097
lfingers 7.12502
lthumb -14.7547 38.3858
rfemur -25.2066 -7.38576 19.7618
rtibia 40.7493
rfoot -4.69826 6.50727
rtoes -16.9938
lfemur 26.529 2.93863 -14.4394
ltibia 0
lfoot -16.6786 -12.9486
ltoes -8.83374
71
root 3.77335 16.8637 -21.8287 -8.29884 -1.69959 -3.97683
lowerback 7.44742 -5.23788 -0.889177
upperback 3.75275 -7.02374 5.26692
thorax 0.52359 -3.62093 6.41913
lowerneck -18.7484 1.07799 -6.26009
upperneck 28.7446 2.30187 4.01196
head 12.5239 0.848266 2.97266
rclavicle 1.70458e-013 -6.52014e-014
rhumerus -47.7333 7.81638 -83.134
rradius 34.8572
rwrist 28.899
rhand -29.8756 -14.3966
rfingers 7.12502
rthumb -3.19731 -44.3523
lclavicle 1.70458e-013 -6.52014e-014
lhumerus -25.6287 -18.9862 97.7079
lradius 37.468
lwrist -6.39405
lhand -41.7335 8.48162
lfingers 7.12502
lthumb -14.6384 37.9449
rfemur -25.5672 -8.04975 19.5275
rtibia 39.4348
rfoot -3.0978 7.30574
rtoes -17.3015
lfemur 27.1476 2.95989 -14.9759
ltibia 4.45278e-014
lfoot -17.1373 -13.0929
ltoes -9.38978
72
root 3.76775 16.8601 -21.6673 -8.09656 -1.44129 -3.8403
lowerback 7.15956 -5.37383 -1.01176
upperback 3.59795 -7.21416 5.33588
thorax 0.568552 -3.7183 6.54597
lowerneck -18.6584 1.20517 -6.04566
upperneck 28.9497 2.50728 3.69314
head 12.585 0.913973 2.84985
rclavicle -1.87852e-014 -2.8625e-014
rhumerus -47.9699 6.39375 -82.3462
rradius 34.2521
rwrist 30.7166
rhand -29.9227 -14.5425
rfingers 7.12502
rthumb -3.24284 -44.4976
lclavicle -1.87852e-014 -2.8625e-014
lhumerus -25.3142 -19.3641 97.5029
lradius 37.8294
lwrist -6.35052
lhand -41.6737 8.48069
lfingers 7.12502
lthumb -14.5808 37.9482
rfemur -26.2033 -8.5351 19.7201
rtibia 38.3986
rfoot -1.79044 7.52093
rtoes -17.1355
lfemur 27.486 2.78148 -15.1021
ltibia -7.63333e-014
lfoot -17.5539 -13.2118
ltoes -9.74488
73
root 3.76022 16.8406 -21.5004 -8.01987 -1.33504 -3.66969
lowerback 6.94572 -5.51533 -1.2278
upperback 3.52233 -7.42064 5.48609
thorax 0.682707 -3.8308 6.81294
lowerneck -18.524 1.32857 -6.11137
upperneck 28.9989 2.79259 3.39311
head 12.5664 0.990479 2.78831
rclavicle -1.4561e-013 6.20208e-014
rhumerus -48.1687 6.08576 -82.0014
rradius 34.1955
rwrist 29.4531
rhand -29.6675 -14.3247
rfingers 7.12502
rthumb -2.99634 -44.2834
lclavicle -1.4561e-013 6.20208e-014
lhumerus -24.827 -19.2998 97.2771
lradius 38.2432
lwrist -6.11808
lhand -41.4855 7.93403
lfingers 7.12502
lthumb -14.3995 37.4145
rfemur -26.7186 -9.3768 19.999
rtibia 37.5318
rfoot -0.701813 8.17115
rtoes -17.0014
lfemur 28.0232 2.73279 -15.2034
ltibia -2.22639e-014
lfoot -18.1162 -13.3789
ltoes -9.72459
